<?xml version="1.0" encoding="iso-8859-1"?>
<!-- Generator: Adobe Illustrator 19.0.0, SVG Export Plug-In . SVG Version: 6.00 Build 0)  -->
<svg version="1.1" id="Layer_1" xmlns="http://www.w3.org/2000/svg" xmlns:xlink="http://www.w3.org/1999/xlink" x="0px" y="0px"
	 viewBox="0 0 511.999 511.999" style="enable-background:new 0 0 511.999 511.999;" xml:space="preserve">
<g>
	<path style="fill:#5C4853;" d="M238.792,491.485l-9.391-178.873l-17.305,0.909l9.045,172.261l0.33,0.106l-25.123,9.215
		c-4.545,1.498-7.014,6.398-5.515,10.943c1.498,4.546,6.398,7.013,10.943,5.515l31.064-11.393
		C236.636,498.915,238.975,495.288,238.792,491.485z"/>
	<path style="fill:#5C4853;" d="M273.206,491.485l9.391-178.873l17.305,0.909l-9.045,172.261l-0.33,0.106l25.123,9.215
		c4.545,1.498,7.014,6.398,5.515,10.943c-1.498,4.546-6.398,7.013-10.943,5.515l-31.064-11.393
		C275.361,498.915,273.023,495.288,273.206,491.485z"/>
</g>
<g>
	<path style="fill:#733B59;" d="M295.968,197.266v-17.329c33.202,0,60.213,27.012,60.213,60.213s-27.012,60.213-60.213,60.213
		v-17.329c23.646,0,42.884-19.238,42.884-42.884S319.614,197.266,295.968,197.266z"/>
	<path style="fill:#733B59;" d="M216.031,197.266v-17.329c-33.202,0-60.213,27.012-60.213,60.213s27.012,60.213,60.213,60.213
		v-17.329c-23.646,0-42.884-19.238-42.884-42.884S192.385,197.266,216.031,197.266z"/>
</g>
<path style="fill:#5C4853;" d="M255.992,0c-27.631,0-50.111,22.486-50.111,50.128V89.84l100.238,0.006V50.128
	C306.118,22.486,283.632,0,255.992,0z"/>
<path style="fill:#733B59;" d="M293.076,292.795l11.553-8.665v-15.75l-11.553-8.665l11.553-8.665V235.3l-11.553-8.665l11.553-8.665
	v-15.75l-11.553-8.665l11.187-8.665c-1.744-8.944-9.658-15.75-19.092-15.75h-58.342c-9.435,0-17.348,6.807-19.092,15.75
	l11.187,8.665l-11.553,8.665v15.75l11.553,8.665l-11.553,8.665v15.751l11.553,8.665l-11.553,8.665v15.75l11.553,8.665l-11.553,8.665
	L256,324.565l48.629-23.106L293.076,292.795z"/>
<path style="fill:#F7D0BC;" d="M223.339,51.818c-10.686,9.196-17.456,22.817-17.456,38.032c0,27.68,22.436,50.104,50.104,50.104
	c17.156,0,32.302-8.607,41.336-21.754L223.339,51.818z"/>
<g>
	<path style="fill:#460929;" d="M306.115,89.85c0,10.525-3.246,20.287-8.792,28.351c-30.996-3.604-66.013-25.913-73.972-66.371
		c8.757-7.544,20.171-12.107,32.637-12.107C283.679,39.722,306.115,62.157,306.115,89.85z"/>
	<polygon style="fill:#460929;" points="304.628,301.461 255.999,324.566 207.37,301.461 207.37,284.132 304.628,284.132 	"/>
	<rect x="207.372" y="251.054" style="fill:#460929;" width="97.263" height="17.329"/>
	<rect x="207.372" y="217.978" style="fill:#460929;" width="97.263" height="17.329"/>
	<path style="fill:#460929;" d="M304.628,188.591c-0.001-1.265-0.132-2.499-0.366-3.698h-96.526
		c-0.235,1.203-0.366,2.44-0.366,3.708v13.621h97.258V188.591z"/>
</g>
<path style="fill:#5C4853;" d="M207.37,301.461c0,26.857,21.772,48.629,48.629,48.629s48.629-21.772,48.629-48.629H207.37z"/>
<g>
</g>
<g>
</g>
<g>
</g>
<g>
</g>
<g>
</g>
<g>
</g>
<g>
</g>
<g>
</g>
<g>
</g>
<g>
</g>
<g>
</g>
<g>
</g>
<g>
</g>
<g>
</g>
<g>
</g>
</svg>
